HIERARCHY
ROOT Hips
{
	OFFSET 0.000000 0.000000 0.000000
	CHANNELS 6 Xposition Yposition Zposition Zrotation Yrotation Xrotation 
	JOINT Hips_Spine
	{
		OFFSET 0.000000 0.000000 0.000000
		CHANNELS 3 Zrotation Yrotation Xrotation
		JOINT Spine
		{
			OFFSET 0.005100 8.711998 -0.691000
			CHANNELS 3 Zrotation Yrotation Xrotation
			JOINT Spine1
			{
				OFFSET -0.009200 8.660301 -1.275000
				CHANNELS 3 Zrotation Yrotation Xrotation
				JOINT Spine2
				{
					OFFSET 0.006300 9.852501 -1.857000
					CHANNELS 3 Zrotation Yrotation Xrotation
					JOINT Spine2_Neck
					{
						OFFSET 0.000000 0.000000 0.000000
						CHANNELS 3 Zrotation Yrotation Xrotation
						JOINT Neck
						{
							OFFSET 0.016300 11.420799 -0.263300
							CHANNELS 3 Zrotation Yrotation Xrotation
							End Site #name: Head
							{
								OFFSET -0.019200 9.262405 2.362500
							}
						}
					}
					JOINT Spine2_LeftShoulder
					{
						OFFSET 0.000000 0.000000 0.000000
						CHANNELS 3 Zrotation Yrotation Xrotation
						JOINT LeftShoulder
						{
							OFFSET 5.616900 6.732201 -0.345700
							CHANNELS 3 Zrotation Yrotation Xrotation
							JOINT LeftArm
							{
								OFFSET 10.664888 -0.183372 -2.440700
								CHANNELS 3 Zrotation Yrotation Xrotation
								JOINT LeftForeArm
								{
									OFFSET 27.459126 0.000000 0.000000
									CHANNELS 3 Zrotation Yrotation Xrotation
									End Site #name: LeftHand
									{
										OFFSET 21.306858 0.000000 0.000000
									}
								}
							}
						}
					}
					JOINT Spine2_RightShoulder
					{
						OFFSET 0.000000 0.000000 0.000000
						CHANNELS 3 Zrotation Yrotation Xrotation
						JOINT RightShoulder
						{
							OFFSET -5.580300 6.737503 -0.344400
							CHANNELS 3 Zrotation Yrotation Xrotation
							JOINT RightArm
							{
								OFFSET -10.679335 -0.188484 -2.383900
								CHANNELS 3 Zrotation Yrotation Xrotation
								JOINT RightForeArm
								{
									OFFSET -27.503529 0.000000 0.000000
									CHANNELS 3 Zrotation Yrotation Xrotation
									End Site #name: RightHand
									{
										OFFSET -21.306808 0.000000 0.000000
									}
								}
							}
						}
					}
				}
			}
		}
	}
	JOINT Hips_LeftUpLeg
	{
		OFFSET 0.000000 0.000000 0.000000
		CHANNELS 3 Zrotation Yrotation Xrotation
		JOINT LeftUpLeg
		{
			OFFSET 6.857700 -6.739601 0.312100
			CHANNELS 3 Zrotation Yrotation Xrotation
			JOINT LeftLeg
			{
				OFFSET -0.367590 -34.731552 -4.572400
				CHANNELS 3 Zrotation Yrotation Xrotation
				End Site #name: LeftFoot
				{
					OFFSET 0.367590 -34.656704 -6.067400
				}
			}
		}
	}
	JOINT Hips_RightUpLeg
	{
		OFFSET 0.000000 0.000000 0.000000
		CHANNELS 3 Zrotation Yrotation Xrotation
		JOINT RightUpLeg
		{
			OFFSET -6.876100 -6.733299 0.301000
			CHANNELS 3 Zrotation Yrotation Xrotation
			JOINT RightLeg
			{
				OFFSET 0.347353 -34.795158 -4.515900
				CHANNELS 3 Zrotation Yrotation Xrotation
				End Site #name: RightFoot
				{
					OFFSET -0.347353 -34.589367 -6.070300
				}
			}
		}
	}
}
MOTION
Frames: 9
Frame Time: 0.041667
-0.870216 -0.715687 0.098052 8.541569 -3.444513 -90.525347 -0.000000 0.000000 -0.000000 -1.516581 4.105649 -1.764179 -0.334744 1.143860 -3.454370 0.000000 0.000000 0.000000 -0.160411 1.051737 -3.530349 0.165707 -1.374716 0.899708 -0.346863 0.891125 -3.898473 -6.082140 -15.661006 2.566347 -66.689137 21.094652 -9.385173 179.222399 -37.178588 179.912645 -0.359882 1.104700 -3.275804 -2.175932 8.844313 -0.433955 73.317909 -15.082214 3.237075 -179.449012 42.964554 179.695238 -0.000000 0.000000 0.000000 -13.993252 16.046366 -27.677782 -14.342896 -2.206166 27.692741 -0.000000 -0.000000 0.000000 2.973883 -12.160312 -8.368101 5.560658 -8.216760 11.654824 
-0.905786 -0.731007 0.104164 8.540388 -3.444247 -90.516893 -0.000000 0.000000 -0.000000 -1.517217 4.101297 -1.759168 -0.333548 1.141804 -3.447467 0.000000 0.000000 0.000000 -0.159757 1.049800 -3.521410 0.164134 -1.372694 0.894688 -0.346265 0.888618 -3.891275 -6.081955 -15.660328 2.566830 -66.682434 21.069818 -9.395529 179.223650 -37.232947 179.912650 -0.359309 1.102845 -3.268622 -2.171462 8.839300 -0.432267 73.312616 -15.061254 3.234365 -179.449244 42.981845 179.695394 -0.000000 0.000000 0.000000 -13.990586 16.045700 -27.675936 -14.341668 -2.206750 27.693905 -0.000000 -0.000000 0.000000 2.974567 -12.160766 -8.369631 5.560983 -8.216851 11.655123 
-0.941442 -0.746307 0.110483 8.539076 -3.443588 -90.508133 -0.000000 0.000000 -0.000000 -1.517900 4.097325 -1.754967 -0.332545 1.140001 -3.442029 0.000000 0.000000 0.000000 -0.159314 1.048100 -3.514100 0.162416 -1.370721 0.889777 -0.345800 0.886381 -3.885582 -6.081758 -15.661358 2.567585 -66.677875 21.049541 -9.406858 179.224077 -37.274758 179.912558 -0.358832 1.101264 -3.262809 -2.167016 8.835246 -0.430648 73.308297 -15.042295 3.230458 -179.449465 42.997150 179.695493 -0.000000 0.000000 0.000000 -13.987969 16.045462 -27.673963 -14.340376 -2.207229 27.695037 -0.000000 -0.000000 0.000000 2.975180 -12.161125 -8.371055 5.561507 -8.216852 11.655099 
-0.977204 -0.761565 0.116986 8.537523 -3.442501 -90.499084 -0.000000 0.000000 -0.000000 -1.518612 4.093823 -1.751592 -0.331737 1.138475 -3.438184 0.000000 0.000000 0.000000 -0.159080 1.046676 -3.508592 0.160601 -1.368734 0.884964 -0.345468 0.884442 -3.881534 -6.081504 -15.664195 2.568618 -66.675466 21.034150 -9.419116 179.223704 -37.303015 179.912316 -0.358436 1.099983 -3.258451 -2.162940 8.832295 -0.429101 73.305459 -15.026085 3.225769 -179.449698 43.008640 179.695441 -0.000000 0.000000 0.000000 -13.985335 16.045772 -27.671771 -14.339029 -2.207597 27.696096 -0.000000 -0.000000 0.000000 2.975691 -12.161325 -8.372292 5.562298 -8.216763 11.654729 
-1.013096 -0.776761 0.123649 8.535853 -3.441014 -90.489836 -0.000000 0.000000 -0.000000 -1.519308 4.090932 -1.749141 -0.331159 1.137283 -3.436046 0.000000 0.000000 0.000000 -0.159053 1.045560 -3.505010 0.158690 -1.366684 0.880386 -0.345292 0.882862 -3.879214 -6.081188 -15.668922 2.569942 -66.674390 21.023669 -9.432638 179.222447 -37.315566 179.911889 -0.358149 1.099045 -3.255650 -2.159596 8.830445 -0.427654 73.304977 -15.013818 3.220522 -179.449923 43.015331 179.695222 -0.000000 0.000000 0.000000 -13.982674 16.046622 -27.669295 -14.337650 -2.207893 27.697015 -0.000000 -0.000000 0.000000 2.976069 -12.161271 -8.373274 5.563435 -8.216538 11.653961 
-1.049107 -0.791880 0.130453 8.534099 -3.439053 -90.480654 -0.000000 0.000000 -0.000000 -1.519942 4.088772 -1.747679 -0.330865 1.136468 -3.435650 0.000000 0.000000 0.000000 -0.159273 1.044791 -3.503500 0.156873 -1.364625 0.876342 -0.345329 0.881670 -3.878691 -6.080829 -15.675863 2.571564 -66.674078 21.017780 -9.448315 179.220336 -37.310008 179.911278 -0.358034 1.098529 -3.254457 -2.157331 8.829852 -0.426349 73.307510 -15.006151 3.215179 -179.450120 43.015442 179.694795 -0.000000 0.000000 0.000000 -13.979954 16.048012 -27.666363 -14.336172 -2.208133 27.697853 -0.000000 -0.000000 0.000000 2.976384 -12.160906 -8.373920 5.565000 -8.216118 11.652770 
-1.085226 -0.806914 0.137380 8.532189 -3.436623 -90.471445 -0.000000 0.000000 -0.000000 -1.520440 4.087500 -1.747187 -0.330923 1.136067 -3.436989 0.000000 0.000000 0.000000 -0.159776 1.044395 -3.503967 0.155216 -1.362779 0.873279 -0.345667 0.880920 -3.879892 -6.080422 -15.685136 2.573471 -66.673780 21.016452 -9.467342 179.217272 -37.284505 179.910490 -0.358159 1.098464 -3.254846 -2.156030 8.830456 -0.425210 73.313537 -15.003891 3.209508 -179.450286 43.008787 179.694176 -0.000000 0.000000 0.000000 -13.977157 16.049880 -27.662953 -14.334520 -2.208347 27.698730 -0.000000 -0.000000 0.000000 2.976638 -12.160048 -8.374183 5.567051 -8.215412 11.651058 
-1.121441 -0.821859 0.144412 8.530095 -3.433824 -90.462216 -0.000000 0.000000 -0.000000 -1.520776 4.087218 -1.747805 -0.331372 1.136086 -3.439913 0.000000 0.000000 0.000000 -0.160587 1.044353 -3.506391 0.153854 -1.361457 0.871692 -0.346366 0.880619 -3.882756 -6.079976 -15.696935 2.575658 -66.673150 21.019652 -9.491060 179.213249 -37.237584 179.909497 -0.358582 1.098845 -3.256680 -2.155234 8.832219 -0.424195 73.322698 -15.006102 3.203200 -179.450524 42.995811 179.693393 -0.000000 0.000000 0.000000 -13.974179 16.052250 -27.659064 -14.332681 -2.208559 27.699758 -0.000000 -0.000000 0.000000 2.976847 -12.158668 -8.373962 5.569627 -8.214333 11.648765 
-1.157742 -0.836710 0.151526 8.527793 -3.430767 -90.453670 -0.000000 0.000000 -0.000000 -1.520895 4.088056 -1.749474 -0.332242 1.136418 -3.444233 0.000000 0.000000 0.000000 -0.161761 1.044545 -3.510468 0.152962 -1.361005 0.871654 -0.347486 0.880646 -3.887038 -6.079336 -15.711366 2.578130 -66.671617 21.026310 -9.518946 179.208246 -37.169513 179.908358 -0.359359 1.099586 -3.259606 -2.154809 8.835144 -0.423308 73.335381 -15.012089 3.195666 -179.450771 42.976523 179.692530 -0.000000 0.000000 0.000000 -13.971054 16.055188 -27.654721 -14.330529 -2.208501 27.700839 -0.000000 -0.000000 0.000000 2.977053 -12.156690 -8.373084 5.572802 -8.212789 11.645705 
